# xmcd
#
# Track frame offsets:
#	150
#	19868
#	36229
#	52167
#	67314
#	84114
#	99608
#	115596
#	130361
#	149958
#	165601
#	181063
#	192443
#	204958
#	221437
#	236202
#	249880
#	269187
#	284584
#	301543
#	316851
#
# Disc length: 4419 seconds
#
# Revision: 0
# Processed by: cddbd v1.5.2PL0 Copyright (c) Steve Scherf et al.
# Submitted via: MusicManager 7.3.0.0 
#
DISCID=3d114115
DTITLE=DAVE SHERIFF - A SONG FOR ALL IRELAND
DYEAR=2011
DGENRE=country
TTITLE0=A SONG FOR ALL IRELAND
TTITLE1=TAKE ME BACK TO GALWAY
TTITLE2=COME ON DOWN TO KILLARNEY
TTITLE3=WHERE THERE'S A WILL THERE'S A WAY
TTITLE4=MUM SECOND TO NONE
TTITLE5=AINT LOVE A WONDERFUL THING
TTITLE6=ALWAYS AND FOREVER
TTITLE7=WALTZ OF A LIFETIME
TTITLE8=COME BACK TO DONEGAL
TTITLE9=BEST OF FRIENDS
TTITLE10=DREAMING
TTITLE11=THE BAND FROM PORTAFERRY
TTITLE12=I WISH I COULD TALK TO MY MOTHER AGAIN
TTITLE13=YOUR SPECIAL DAY
TTITLE14=I'LL BE THERE
TTITLE15=I'M NOT AS YOUNG AS I USED TO BE
TTITLE16=THANK YOU FOR BEING MY WIFE
TTITLE17=WILD CAT FROM  KILKENNY
TTITLE18=WAITING SROUND THE BEND
TTITLE19=ONE GOOD WOMAN
TTITLE20=LIVE FOR TODAY
EXTD=
EXTT0=
EXTT1=
EXTT2=
EXTT3=
EXTT4=
EXTT5=
EXTT6=
EXTT7=
EXTT8=
EXTT9=
EXTT10=
EXTT11=
EXTT12=
EXTT13=
EXTT14=
EXTT15=
EXTT16=
EXTT17=
EXTT18=
EXTT19=
EXTT20=
PLAYORDER=
